<svg width="44" height="44" viewBox="0 0 44 44" fill="none" xmlns="http://www.w3.org/2000/svg">
<path d="M39.9539 1.08337H4.85205C2.91905 1.08337 1.35205 2.65038 1.35205 4.58337V39.6853C1.35205 41.6183 2.91905 43.1853 4.85205 43.1853H39.9539C41.8869 43.1853 43.4539 41.6183 43.4539 39.6853V4.58337C43.4539 2.65038 41.8869 1.08337 39.9539 1.08337Z" fill="white"/>
<path d="M39.9539 1.08337H4.85205C2.91905 1.08337 1.35205 2.65038 1.35205 4.58337V39.6853C1.35205 41.6183 2.91905 43.1853 4.85205 43.1853H39.9539C41.8869 43.1853 43.4539 41.6183 43.4539 39.6853V4.58337C43.4539 2.65038 41.8869 1.08337 39.9539 1.08337Z" stroke="#172853"/>
<g clip-path="url(#clip0_0_1)">
<path d="M21.9999 8C18.7541 8.0221 15.6169 9.17131 13.1249 11.251C10.6329 13.3308 8.94095 16.2118 8.3385 19.4012C7.73605 22.5906 8.26055 25.8903 9.82226 28.7357C11.384 31.5811 13.8858 33.7955 16.8999 35C16.6973 33.6744 16.6973 32.3256 16.8999 31L18.5499 24C18.2888 23.366 18.1595 22.6856 18.1699 22C18.1699 20.06 19.2999 18.6 20.6999 18.6C20.9535 18.5962 21.205 18.6472 21.437 18.7497C21.6691 18.8521 21.8762 19.0034 22.0443 19.1934C22.2125 19.3833 22.3375 19.6074 22.411 19.8502C22.4844 20.0929 22.5045 20.3487 22.4699 20.6C22.4699 21.8 21.7099 23.6 21.3099 25.26C21.2238 25.5696 21.2136 25.8953 21.2801 26.2097C21.3465 26.5241 21.4878 26.8178 21.6919 27.066C21.8959 27.3142 22.1568 27.5096 22.4524 27.6356C22.7479 27.7616 23.0695 27.8146 23.3899 27.79C25.8699 27.79 27.7899 25.16 27.7899 21.38C27.8148 20.6119 27.6794 19.847 27.3922 19.1342C27.105 18.4213 26.6724 17.7761 26.122 17.2398C25.5716 16.7035 24.9154 16.2878 24.1953 16.0192C23.4752 15.7507 22.7071 15.6351 21.9399 15.68C21.1208 15.6448 20.3031 15.7762 19.5362 16.0662C18.7694 16.3562 18.0693 16.7988 17.4785 17.3672C16.8877 17.9356 16.4183 18.618 16.0988 19.3731C15.7794 20.1281 15.6164 20.9401 15.6199 21.76C15.6088 22.9021 15.9588 24.0186 16.6199 24.95C16.668 25.0034 16.7022 25.0678 16.7197 25.1376C16.7371 25.2073 16.7372 25.2802 16.7199 25.35C16.6099 25.79 16.3699 26.75 16.3299 26.94C16.2899 27.13 16.1199 27.25 15.8599 27.13C14.1099 26.31 13.0199 23.76 13.0199 21.7C13.0199 17.29 16.2299 13.23 22.2699 13.23C27.1199 13.23 30.8999 16.69 30.8999 21.32C30.8999 26.14 27.8999 30.02 23.6299 30.02C23.0039 30.0418 22.3824 29.9068 21.8218 29.6274C21.2612 29.348 20.7793 28.933 20.4199 28.42L19.5499 31.75C19.1328 33.0441 18.5479 34.278 17.8099 35.42C19.1697 35.8219 20.5821 36.0174 21.9999 36C25.7129 36 29.2739 34.525 31.8994 31.8995C34.5249 29.274 35.9999 25.713 35.9999 22C35.9999 18.287 34.5249 14.726 31.8994 12.1005C29.2739 9.475 25.7129 8 21.9999 8" fill="#172853"/>
</g>
<defs>
<clipPath id="clip0_0_1">
<rect width="32" height="32" fill="white" transform="translate(6 6)"/>
</clipPath>
</defs>
</svg>
